<svg xmlns="http://www.w3.org/2000/svg" xmlns:xlink="http://www.w3.org/1999/xlink" width="155" zoomAndPan="magnify" viewBox="0 0 116.25 36.000001" height="48" preserveAspectRatio="xMidYMid meet" version="1.0"><defs><g/><clipPath id="d0b38c45ee"><path d="M 1.207031 0.9375 L 26.746094 0.9375 L 26.746094 35.027344 L 1.207031 35.027344 Z M 1.207031 0.9375 " clip-rule="nonzero"/></clipPath></defs><g clip-path="url(#d0b38c45ee)"><path fill="#000000" d="M 21.226562 14.945312 C 23.3125 13.777344 25.074219 11.929688 25.074219 8.613281 L 25.074219 8.523438 C 25.074219 3.914062 21.390625 0.933594 15.40625 0.933594 L 4.726562 0.933594 C 2.808594 0.933594 1.253906 2.496094 1.253906 4.417969 L 1.253906 30.296875 L 2.734375 30.296875 L 2.734375 4.589844 C 2.734375 3.738281 3.425781 3.046875 4.277344 3.046875 C 5.128906 3.046875 5.820312 3.738281 5.820312 4.589844 L 5.820312 30.296875 L 8.660156 30.296875 L 8.660156 35.234375 L 11.683594 33.285156 L 14.703125 35.234375 L 14.703125 30.296875 L 15.742188 30.296875 C 22.355469 30.296875 26.699219 27.613281 26.699219 22.238281 L 26.699219 22.15625 C 26.699219 18.210938 24.613281 16.242188 21.226562 14.945312 " fill-opacity="1" fill-rule="nonzero"/></g><g fill="#000000" fill-opacity="1"><g transform="translate(28.08665, 23.988449)"><g><path d="M 10.40625 -5.046875 C 10.40625 -3.378906 9.988281 -2.097656 9.15625 -1.203125 C 8.332031 -0.304688 7.148438 0.140625 5.609375 0.140625 C 4.066406 0.140625 2.878906 -0.304688 2.046875 -1.203125 C 1.222656 -2.097656 0.8125 -3.382812 0.8125 -5.0625 C 0.8125 -6.738281 1.226562 -8.019531 2.0625 -8.90625 C 2.894531 -9.789062 4.082031 -10.234375 5.625 -10.234375 C 7.175781 -10.234375 8.359375 -9.785156 9.171875 -8.890625 C 9.992188 -8.003906 10.40625 -6.722656 10.40625 -5.046875 Z M 3.0625 -5.046875 C 3.0625 -3.921875 3.273438 -3.070312 3.703125 -2.5 C 4.128906 -1.9375 4.765625 -1.65625 5.609375 -1.65625 C 7.316406 -1.65625 8.171875 -2.785156 8.171875 -5.046875 C 8.171875 -7.316406 7.320312 -8.453125 5.625 -8.453125 C 4.78125 -8.453125 4.140625 -8.164062 3.703125 -7.59375 C 3.273438 -7.019531 3.0625 -6.171875 3.0625 -5.046875 Z M 3.0625 -5.046875 "/></g></g></g><g fill="#000000" fill-opacity="1"><g transform="translate(39.312246, 23.988449)"><g><path d="M 10.40625 -5.046875 C 10.40625 -3.378906 9.988281 -2.097656 9.15625 -1.203125 C 8.332031 -0.304688 7.148438 0.140625 5.609375 0.140625 C 4.066406 0.140625 2.878906 -0.304688 2.046875 -1.203125 C 1.222656 -2.097656 0.8125 -3.382812 0.8125 -5.0625 C 0.8125 -6.738281 1.226562 -8.019531 2.0625 -8.90625 C 2.894531 -9.789062 4.082031 -10.234375 5.625 -10.234375 C 7.175781 -10.234375 8.359375 -9.785156 9.171875 -8.890625 C 9.992188 -8.003906 10.40625 -6.722656 10.40625 -5.046875 Z M 3.0625 -5.046875 C 3.0625 -3.921875 3.273438 -3.070312 3.703125 -2.5 C 4.128906 -1.9375 4.765625 -1.65625 5.609375 -1.65625 C 7.316406 -1.65625 8.171875 -2.785156 8.171875 -5.046875 C 8.171875 -7.316406 7.320312 -8.453125 5.625 -8.453125 C 4.78125 -8.453125 4.140625 -8.164062 3.703125 -7.59375 C 3.273438 -7.019531 3.0625 -6.171875 3.0625 -5.046875 Z M 3.0625 -5.046875 "/></g></g></g><g fill="#000000" fill-opacity="1"><g transform="translate(50.537842, 23.988449)"><g><path d="M 9.40625 0 L 6.96875 0 L 4.625 -3.8125 L 2.28125 0 L 0 0 L 3.34375 -5.1875 L 0.21875 -10.078125 L 2.5625 -10.078125 L 4.734375 -6.453125 L 6.875 -10.078125 L 9.171875 -10.078125 L 6 -5.078125 Z M 9.40625 0 "/></g></g></g><g fill="#000000" fill-opacity="1"><g transform="translate(59.945305, 23.988449)"><g><path d="M 5.15625 0 L 3.015625 0 L 3.015625 -8.296875 L 0.28125 -8.296875 L 0.28125 -10.078125 L 7.890625 -10.078125 L 7.890625 -8.296875 L 5.15625 -8.296875 Z M 5.15625 0 "/></g></g></g><g fill="#000000" fill-opacity="1"><g transform="translate(68.113131, 23.988449)"><g><path d="M 7.4375 0 L 6.703125 -2.390625 L 3.03125 -2.390625 L 2.296875 0 L 0 0 L 3.5625 -10.109375 L 6.171875 -10.109375 L 9.734375 0 Z M 6.1875 -4.1875 C 5.519531 -6.363281 5.140625 -7.59375 5.046875 -7.875 C 4.960938 -8.15625 4.90625 -8.378906 4.875 -8.546875 C 4.71875 -7.960938 4.28125 -6.507812 3.5625 -4.1875 Z M 6.1875 -4.1875 "/></g></g></g><g fill="#000000" fill-opacity="1"><g transform="translate(77.844282, 23.988449)"><g><path d="M 5.15625 0 L 3.015625 0 L 3.015625 -8.296875 L 0.28125 -8.296875 L 0.28125 -10.078125 L 7.890625 -10.078125 L 7.890625 -8.296875 L 5.15625 -8.296875 Z M 5.15625 0 "/></g></g></g><g fill="#000000" fill-opacity="1"><g transform="translate(86.012109, 23.988449)"><g><path d="M 1.265625 0 L 1.265625 -10.078125 L 3.40625 -10.078125 L 3.40625 0 Z M 1.265625 0 "/></g></g></g><g fill="#000000" fill-opacity="1"><g transform="translate(90.681406, 23.988449)"><g><path d="M 10.40625 -5.046875 C 10.40625 -3.378906 9.988281 -2.097656 9.15625 -1.203125 C 8.332031 -0.304688 7.148438 0.140625 5.609375 0.140625 C 4.066406 0.140625 2.878906 -0.304688 2.046875 -1.203125 C 1.222656 -2.097656 0.8125 -3.382812 0.8125 -5.0625 C 0.8125 -6.738281 1.226562 -8.019531 2.0625 -8.90625 C 2.894531 -9.789062 4.082031 -10.234375 5.625 -10.234375 C 7.175781 -10.234375 8.359375 -9.785156 9.171875 -8.890625 C 9.992188 -8.003906 10.40625 -6.722656 10.40625 -5.046875 Z M 3.0625 -5.046875 C 3.0625 -3.921875 3.273438 -3.070312 3.703125 -2.5 C 4.128906 -1.9375 4.765625 -1.65625 5.609375 -1.65625 C 7.316406 -1.65625 8.171875 -2.785156 8.171875 -5.046875 C 8.171875 -7.316406 7.320312 -8.453125 5.625 -8.453125 C 4.78125 -8.453125 4.140625 -8.164062 3.703125 -7.59375 C 3.273438 -7.019531 3.0625 -6.171875 3.0625 -5.046875 Z M 3.0625 -5.046875 "/></g></g></g><g fill="#000000" fill-opacity="1"><g transform="translate(101.907002, 23.988449)"><g><path d="M 10.203125 0 L 7.484375 0 L 3.109375 -7.625 L 3.046875 -7.625 C 3.128906 -6.269531 3.171875 -5.304688 3.171875 -4.734375 L 3.171875 0 L 1.265625 0 L 1.265625 -10.078125 L 3.96875 -10.078125 L 8.34375 -2.53125 L 8.390625 -2.53125 C 8.316406 -3.832031 8.28125 -4.757812 8.28125 -5.3125 L 8.28125 -10.078125 L 10.203125 -10.078125 Z M 10.203125 0 "/></g></g></g><g fill="#000000" fill-opacity="1"><g transform="translate(39.492957, 31.019747)"><g><path d="M 0.671875 -4.921875 L 2.0625 -4.921875 C 2.71875 -4.921875 3.191406 -4.820312 3.484375 -4.625 C 3.773438 -4.425781 3.921875 -4.117188 3.921875 -3.703125 C 3.921875 -3.410156 3.835938 -3.164062 3.671875 -2.96875 C 3.515625 -2.78125 3.28125 -2.660156 2.96875 -2.609375 L 2.96875 -2.578125 C 3.707031 -2.453125 4.078125 -2.0625 4.078125 -1.40625 C 4.078125 -0.957031 3.925781 -0.609375 3.625 -0.359375 C 3.332031 -0.117188 2.921875 0 2.390625 0 L 0.671875 0 Z M 1.25 -2.8125 L 2.1875 -2.8125 C 2.59375 -2.8125 2.882812 -2.875 3.0625 -3 C 3.238281 -3.125 3.328125 -3.335938 3.328125 -3.640625 C 3.328125 -3.921875 3.226562 -4.117188 3.03125 -4.234375 C 2.832031 -4.359375 2.519531 -4.421875 2.09375 -4.421875 L 1.25 -4.421875 Z M 1.25 -2.328125 L 1.25 -0.484375 L 2.28125 -0.484375 C 2.675781 -0.484375 2.972656 -0.5625 3.171875 -0.71875 C 3.367188 -0.875 3.46875 -1.113281 3.46875 -1.4375 C 3.46875 -1.738281 3.363281 -1.960938 3.15625 -2.109375 C 2.957031 -2.253906 2.648438 -2.328125 2.234375 -2.328125 Z M 1.25 -2.328125 "/></g></g></g><g fill="#000000" fill-opacity="1"><g transform="translate(44.679597, 31.019747)"><g><path d="M 4.953125 -2.46875 C 4.953125 -1.675781 4.75 -1.054688 4.34375 -0.609375 C 3.945312 -0.160156 3.394531 0.0625 2.6875 0.0625 C 1.957031 0.0625 1.394531 -0.15625 1 -0.59375 C 0.613281 -1.039062 0.421875 -1.664062 0.421875 -2.46875 C 0.421875 -3.269531 0.617188 -3.890625 1.015625 -4.328125 C 1.410156 -4.773438 1.96875 -5 2.6875 -5 C 3.394531 -5 3.945312 -4.773438 4.34375 -4.328125 C 4.75 -3.878906 4.953125 -3.257812 4.953125 -2.46875 Z M 1.03125 -2.46875 C 1.03125 -1.800781 1.171875 -1.296875 1.453125 -0.953125 C 1.734375 -0.609375 2.144531 -0.4375 2.6875 -0.4375 C 3.226562 -0.4375 3.640625 -0.609375 3.921875 -0.953125 C 4.203125 -1.296875 4.34375 -1.800781 4.34375 -2.46875 C 4.34375 -3.125 4.203125 -3.625 3.921875 -3.96875 C 3.648438 -4.3125 3.238281 -4.484375 2.6875 -4.484375 C 2.144531 -4.484375 1.734375 -4.3125 1.453125 -3.96875 C 1.171875 -3.625 1.03125 -3.125 1.03125 -2.46875 Z M 1.03125 -2.46875 "/></g></g></g><g fill="#000000" fill-opacity="1"><g transform="translate(50.767654, 31.019747)"><g><path d="M 4.953125 -2.46875 C 4.953125 -1.675781 4.75 -1.054688 4.34375 -0.609375 C 3.945312 -0.160156 3.394531 0.0625 2.6875 0.0625 C 1.957031 0.0625 1.394531 -0.15625 1 -0.59375 C 0.613281 -1.039062 0.421875 -1.664062 0.421875 -2.46875 C 0.421875 -3.269531 0.617188 -3.890625 1.015625 -4.328125 C 1.410156 -4.773438 1.96875 -5 2.6875 -5 C 3.394531 -5 3.945312 -4.773438 4.34375 -4.328125 C 4.75 -3.878906 4.953125 -3.257812 4.953125 -2.46875 Z M 1.03125 -2.46875 C 1.03125 -1.800781 1.171875 -1.296875 1.453125 -0.953125 C 1.734375 -0.609375 2.144531 -0.4375 2.6875 -0.4375 C 3.226562 -0.4375 3.640625 -0.609375 3.921875 -0.953125 C 4.203125 -1.296875 4.34375 -1.800781 4.34375 -2.46875 C 4.34375 -3.125 4.203125 -3.625 3.921875 -3.96875 C 3.648438 -4.3125 3.238281 -4.484375 2.6875 -4.484375 C 2.144531 -4.484375 1.734375 -4.3125 1.453125 -3.96875 C 1.171875 -3.625 1.03125 -3.125 1.03125 -2.46875 Z M 1.03125 -2.46875 "/></g></g></g><g fill="#000000" fill-opacity="1"><g transform="translate(56.855711, 31.019747)"><g><path d="M 4.234375 0 L 3.5625 0 L 1.765625 -2.390625 L 1.25 -1.921875 L 1.25 0 L 0.671875 0 L 0.671875 -4.921875 L 1.25 -4.921875 L 1.25 -2.484375 L 3.484375 -4.921875 L 4.15625 -4.921875 L 2.171875 -2.78125 Z M 4.234375 0 "/></g></g></g><g fill="#000000" fill-opacity="1"><g transform="translate(61.806907, 31.019747)"><g/></g></g><g fill="#000000" fill-opacity="1"><g transform="translate(64.319572, 31.019747)"><g><path d="M 3.453125 -1.3125 C 3.453125 -0.875 3.296875 -0.535156 2.984375 -0.296875 C 2.671875 -0.0546875 2.242188 0.0625 1.703125 0.0625 C 1.117188 0.0625 0.671875 -0.0078125 0.359375 -0.15625 L 0.359375 -0.703125 C 0.554688 -0.617188 0.773438 -0.550781 1.015625 -0.5 C 1.253906 -0.457031 1.488281 -0.4375 1.71875 -0.4375 C 2.101562 -0.4375 2.390625 -0.507812 2.578125 -0.65625 C 2.773438 -0.800781 2.875 -1 2.875 -1.25 C 2.875 -1.425781 2.835938 -1.566406 2.765625 -1.671875 C 2.703125 -1.785156 2.585938 -1.882812 2.421875 -1.96875 C 2.265625 -2.0625 2.023438 -2.164062 1.703125 -2.28125 C 1.242188 -2.445312 0.914062 -2.640625 0.71875 -2.859375 C 0.519531 -3.085938 0.421875 -3.382812 0.421875 -3.75 C 0.421875 -4.125 0.5625 -4.421875 0.84375 -4.640625 C 1.132812 -4.867188 1.515625 -4.984375 1.984375 -4.984375 C 2.472656 -4.984375 2.921875 -4.894531 3.328125 -4.71875 L 3.15625 -4.21875 C 2.75 -4.394531 2.351562 -4.484375 1.96875 -4.484375 C 1.664062 -4.484375 1.425781 -4.414062 1.25 -4.28125 C 1.082031 -4.15625 1 -3.972656 1 -3.734375 C 1 -3.566406 1.03125 -3.425781 1.09375 -3.3125 C 1.15625 -3.207031 1.257812 -3.109375 1.40625 -3.015625 C 1.5625 -2.929688 1.789062 -2.832031 2.09375 -2.71875 C 2.613281 -2.539062 2.96875 -2.34375 3.15625 -2.125 C 3.351562 -1.914062 3.453125 -1.644531 3.453125 -1.3125 Z M 3.453125 -1.3125 "/></g></g></g><g fill="#000000" fill-opacity="1"><g transform="translate(68.823424, 31.019747)"><g><path d="M 2.1875 0 L 1.625 0 L 1.625 -4.40625 L 0.0625 -4.40625 L 0.0625 -4.921875 L 3.75 -4.921875 L 3.75 -4.40625 L 2.1875 -4.40625 Z M 2.1875 0 "/></g></g></g><g fill="#000000" fill-opacity="1"><g transform="translate(73.357548, 31.019747)"><g><path d="M 4.953125 -2.46875 C 4.953125 -1.675781 4.75 -1.054688 4.34375 -0.609375 C 3.945312 -0.160156 3.394531 0.0625 2.6875 0.0625 C 1.957031 0.0625 1.394531 -0.15625 1 -0.59375 C 0.613281 -1.039062 0.421875 -1.664062 0.421875 -2.46875 C 0.421875 -3.269531 0.617188 -3.890625 1.015625 -4.328125 C 1.410156 -4.773438 1.96875 -5 2.6875 -5 C 3.394531 -5 3.945312 -4.773438 4.34375 -4.328125 C 4.75 -3.878906 4.953125 -3.257812 4.953125 -2.46875 Z M 1.03125 -2.46875 C 1.03125 -1.800781 1.171875 -1.296875 1.453125 -0.953125 C 1.734375 -0.609375 2.144531 -0.4375 2.6875 -0.4375 C 3.226562 -0.4375 3.640625 -0.609375 3.921875 -0.953125 C 4.203125 -1.296875 4.34375 -1.800781 4.34375 -2.46875 C 4.34375 -3.125 4.203125 -3.625 3.921875 -3.96875 C 3.648438 -4.3125 3.238281 -4.484375 2.6875 -4.484375 C 2.144531 -4.484375 1.734375 -4.3125 1.453125 -3.96875 C 1.171875 -3.625 1.03125 -3.125 1.03125 -2.46875 Z M 1.03125 -2.46875 "/></g></g></g><g fill="#000000" fill-opacity="1"><g transform="translate(79.445606, 31.019747)"><g><path d="M 1.25 -2.046875 L 1.25 0 L 0.671875 0 L 0.671875 -4.921875 L 2.03125 -4.921875 C 2.632812 -4.921875 3.078125 -4.800781 3.359375 -4.5625 C 3.648438 -4.332031 3.796875 -3.988281 3.796875 -3.53125 C 3.796875 -2.875 3.46875 -2.429688 2.8125 -2.203125 L 4.140625 0 L 3.46875 0 L 2.28125 -2.046875 Z M 1.25 -2.53125 L 2.03125 -2.53125 C 2.4375 -2.53125 2.734375 -2.609375 2.921875 -2.765625 C 3.109375 -2.929688 3.203125 -3.175781 3.203125 -3.5 C 3.203125 -3.820312 3.101562 -4.054688 2.90625 -4.203125 C 2.71875 -4.347656 2.410156 -4.421875 1.984375 -4.421875 L 1.25 -4.421875 Z M 1.25 -2.53125 "/></g></g></g><g fill="#000000" fill-opacity="1"><g transform="translate(84.427075, 31.019747)"><g><path d="M 3.421875 0 L 0.671875 0 L 0.671875 -4.921875 L 3.421875 -4.921875 L 3.421875 -4.40625 L 1.25 -4.40625 L 1.25 -2.828125 L 3.28125 -2.828125 L 3.28125 -2.328125 L 1.25 -2.328125 L 1.25 -0.515625 L 3.421875 -0.515625 Z M 3.421875 0 "/></g></g></g></svg>